<svg width="120" height="120" viewBox="0 0 120 120" fill="none" xmlns="http://www.w3.org/2000/svg">
<path d="M19.4823 60C19.4823 51.5639 22.1166 43.3382 27.0175 36.4717C31.9185 29.6052 38.8418 24.44 46.8202 21.6983C54.7984 18.9566 63.4339 18.7754 71.5204 21.1787C79.6068 23.5822 86.7409 28.4504 91.9266 35.1045L81.6727 43.0957C78.1516 38.5776 73.3073 35.2716 67.8163 33.6397C62.3255 32.0079 56.462 32.1315 51.0448 33.9932C45.6275 35.8548 40.9264 39.3611 37.5985 44.0235C34.2707 48.6859 32.4823 54.2717 32.4823 60C32.4823 65.728 34.2702 71.3134 37.5975 75.9756C40.9254 80.6381 45.6275 84.1452 51.0448 86.0069C56.462 87.8685 62.3255 87.9921 67.8163 86.3604C73.3073 84.7284 78.1516 81.4225 81.6727 76.9043L91.9266 84.8955C86.7409 91.5496 79.6068 96.4179 71.5204 98.8213C63.4339 101.225 54.7984 101.043 46.8202 98.3018C38.8418 95.56 31.9185 90.3948 27.0175 83.5283C22.1166 76.6618 19.4823 68.4362 19.4823 60Z" fill="#7E47C4"/>
<path d="M103.364 33H82.6364C81.7326 33 81 33.6716 81 34.5V44.5C81 45.3284 81.7326 46 82.6364 46H103.364C104.267 46 105 45.3284 105 44.5V34.5C105 33.6716 104.267 33 103.364 33Z" fill="#7E47C4"/>
<path d="M103.364 74H82.6364C81.7326 74 81 74.6716 81 75.5V85.5C81 86.3284 81.7326 87 82.6364 87H103.364C104.267 87 105 86.3284 105 85.5V75.5C105 74.6716 104.267 74 103.364 74Z" fill="#7E47C4"/>
<path d="M67.2222 53H52.7778C51.2437 53 50 54.3431 50 56C50 57.6569 51.2437 59 52.7778 59H67.2222C68.7563 59 70 57.6569 70 56C70 54.3431 68.7563 53 67.2222 53Z" fill="#7E47C4"/>
<path d="M67.2222 63H52.7778C51.2437 63 50 64.3431 50 66C50 67.6569 51.2437 69 52.7778 69H67.2222C68.7563 69 70 67.6569 70 66C70 64.3431 68.7563 63 67.2222 63Z" fill="#7E47C4"/>
</svg>
