<svg width="423" height="110" viewBox="0 0 423 110" fill="none" xmlns="http://www.w3.org/2000/svg">
<path d="M17.3171 55.0003C17.3171 47.1544 19.7669 39.5037 24.3249 33.1175L24.7585 32.5238C29.2872 26.4338 35.5537 21.8486 42.7419 19.3783C49.93 16.9081 57.692 16.6721 65.0075 18.6917L65.7146 18.8939L66.4167 19.1107C73.6481 21.4143 80.0217 25.8507 84.6941 31.846L74.4402 39.8372C71.2818 35.7846 66.9358 32.8196 62.0105 31.3558C57.0855 29.8922 51.8265 30.0025 46.9675 31.6722C42.1083 33.3421 37.892 36.4881 34.907 40.6703C31.922 44.8523 30.3171 49.8622 30.3171 55.0003C30.3172 60.1384 31.9221 65.1484 34.907 69.3304C37.892 73.5123 42.1084 76.6577 46.9675 78.3275C51.8265 79.9972 57.0856 80.1084 62.0105 78.6449L62.4714 78.5033C67.2069 76.9946 71.3805 74.0884 74.4402 70.1624L84.6941 78.1537C79.871 84.3423 73.2354 88.8705 65.7146 91.1058C58.1937 93.341 50.162 93.1723 42.7419 90.6224C35.3218 88.0725 28.8831 83.2682 24.3249 76.8822C19.767 70.4962 17.3172 62.8461 17.3171 55.0003Z" fill="#7E47C4"/>
<path d="M94.7503 30.25H75.75C74.9215 30.25 74.25 30.8656 74.25 31.625V40.7917C74.25 41.551 74.9215 42.1667 75.75 42.1667H94.7503C95.5781 42.1667 96.25 41.551 96.25 40.7917V31.625C96.25 30.8656 95.5781 30.25 94.7503 30.25Z" fill="#7E47C4"/>
<path d="M94.7503 67.8333H75.75C74.9215 67.8333 74.25 68.449 74.25 69.2083V78.375C74.25 79.1344 74.9215 79.75 75.75 79.75H94.7503C95.5781 79.75 96.25 79.1344 96.25 78.375V69.2083C96.25 68.449 95.5781 67.8333 94.7503 67.8333Z" fill="#7E47C4"/>
<path d="M61.6203 48.5833H48.3796C46.9734 48.5833 45.8333 49.8145 45.8333 51.3333C45.8333 52.8522 46.9734 54.0833 48.3796 54.0833H61.6203C63.0266 54.0833 64.1667 52.8522 64.1667 51.3333C64.1667 49.8145 63.0266 48.5833 61.6203 48.5833Z" fill="#7E47C4"/>
<path d="M61.6203 57.75H48.3796C46.9734 57.75 45.8333 58.9812 45.8333 60.5C45.8333 62.0188 46.9734 63.25 48.3796 63.25H61.6203C63.0266 63.25 64.1667 62.0188 64.1667 60.5C64.1667 58.9812 63.0266 57.75 61.6203 57.75Z" fill="#7E47C4"/>
<path d="M411.812 70V39.434H418.198V70H411.812ZM415.036 35.28C413.796 35.28 412.742 34.8873 411.874 34.102C411.047 33.2753 410.634 32.2213 410.634 30.94C410.634 29.6587 411.047 28.6253 411.874 27.84C412.742 27.0133 413.796 26.6 415.036 26.6C416.317 26.6 417.371 27.0133 418.198 27.84C419.024 28.6253 419.438 29.6587 419.438 30.94C419.438 32.2213 419.024 33.2753 418.198 34.102C417.371 34.8873 416.317 35.28 415.036 35.28Z" fill="#3B2E48"/>
<path d="M385.514 70.868C383.324 70.868 381.36 70.496 379.624 69.752C377.93 69.008 376.566 67.9127 375.532 66.466C374.54 65.0193 374.044 63.2627 374.044 61.196C374.044 59.088 374.54 57.352 375.532 55.988C376.566 54.5827 377.95 53.5287 379.686 52.826C381.464 52.1233 383.468 51.772 385.7 51.772H395V49.788C395 48.0107 394.463 46.5847 393.388 45.51C392.314 44.4353 390.66 43.898 388.428 43.898C386.238 43.898 384.564 44.4147 383.406 45.448C382.249 46.4813 381.484 47.8247 381.112 49.478L375.16 47.556C375.656 45.9027 376.442 44.4147 377.516 43.092C378.632 41.728 380.1 40.6327 381.918 39.806C383.737 38.9793 385.928 38.566 388.49 38.566C392.458 38.566 395.579 39.5787 397.852 41.604C400.126 43.6293 401.262 46.502 401.262 50.222V62.808C401.262 64.048 401.841 64.668 402.998 64.668H405.602V70H400.828C399.382 70 398.204 69.628 397.294 68.884C396.385 68.14 395.93 67.1273 395.93 65.846V65.66H395C394.67 66.28 394.174 67.0033 393.512 67.83C392.851 68.6567 391.88 69.38 390.598 70C389.317 70.5787 387.622 70.868 385.514 70.868ZM386.444 65.598C389.007 65.598 391.074 64.8747 392.644 63.428C394.215 61.94 395 59.9147 395 57.352V56.732H386.072C384.378 56.732 383.014 57.104 381.98 57.848C380.947 58.5507 380.43 59.6047 380.43 61.01C380.43 62.4153 380.968 63.5313 382.042 64.358C383.117 65.1847 384.584 65.598 386.444 65.598Z" fill="#3B2E48"/>
<path d="M362.738 70.868C361.291 70.868 360.072 70.3927 359.08 69.442C358.129 68.4913 357.654 67.272 357.654 65.784C357.654 64.296 358.129 63.0973 359.08 62.188C360.072 61.2373 361.291 60.762 362.738 60.762C364.184 60.762 365.383 61.2373 366.334 62.188C367.326 63.1387 367.822 64.3373 367.822 65.784C367.822 67.272 367.326 68.4913 366.334 69.442C365.383 70.3927 364.184 70.868 362.738 70.868Z" fill="#3B2E48"/>
<path d="M324.344 82.4V76.82H341.394C342.551 76.82 343.13 76.2 343.13 74.96V65.536H342.138C341.766 66.3627 341.187 67.1687 340.402 67.954C339.658 68.698 338.645 69.318 337.364 69.814C336.082 70.31 334.47 70.558 332.528 70.558C330.213 70.558 328.146 70.0413 326.328 69.008C324.509 67.9747 323.083 66.5073 322.05 64.606C321.016 62.7047 320.5 60.452 320.5 57.848V39.434H326.886V57.352C326.886 59.9973 327.547 61.9607 328.87 63.242C330.192 64.482 332.032 65.102 334.388 65.102C336.992 65.102 339.079 64.234 340.65 62.498C342.262 60.762 343.068 58.2407 343.068 54.934V39.434H349.454V76.262C349.454 78.122 348.896 79.61 347.78 80.726C346.705 81.842 345.217 82.4 343.316 82.4H324.344Z" fill="#3B2E48"/>
<path d="M304.946 70V26.6H311.332V70H304.946Z" fill="#3B2E48"/>
<path d="M280.97 70V39.434H287.232V43.03H288.224C288.72 41.7487 289.505 40.8187 290.58 40.24C291.696 39.62 293.06 39.31 294.672 39.31H298.33V45.076H294.424C292.357 45.076 290.662 45.6547 289.34 46.812C288.017 47.928 287.356 49.664 287.356 52.02V70H280.97Z" fill="#3B2E48"/>
<path d="M258.775 70.868C255.675 70.868 252.967 70.2273 250.653 68.946C248.338 67.6233 246.519 65.784 245.197 63.428C243.915 61.0307 243.275 58.2613 243.275 55.12V54.376C243.275 51.1933 243.915 48.424 245.197 46.068C246.478 43.6707 248.255 41.8313 250.529 40.55C252.843 39.2273 255.509 38.566 258.527 38.566C261.461 38.566 264.024 39.2273 266.215 40.55C268.447 41.8313 270.183 43.6293 271.423 45.944C272.663 48.2587 273.283 50.966 273.283 54.066V56.484H249.785C249.867 59.1707 250.756 61.32 252.451 62.932C254.187 64.5027 256.336 65.288 258.899 65.288C261.296 65.288 263.094 64.7507 264.293 63.676C265.533 62.6013 266.483 61.3613 267.145 59.956L272.415 62.684C271.836 63.8413 270.989 65.0607 269.873 66.342C268.798 67.6233 267.372 68.698 265.595 69.566C263.817 70.434 261.544 70.868 258.775 70.868ZM249.847 51.586H266.773C266.607 49.2713 265.781 47.4733 264.293 46.192C262.805 44.8693 260.862 44.208 258.465 44.208C256.067 44.208 254.104 44.8693 252.575 46.192C251.087 47.4733 250.177 49.2713 249.847 51.586Z" fill="#3B2E48"/>
<path d="M228.926 70C227.066 70 225.578 69.442 224.462 68.326C223.387 67.21 222.85 65.722 222.85 63.862V44.828H214.418V39.434H222.85V29.328H229.236V39.434H238.35V44.828H229.236V62.746C229.236 63.986 229.815 64.606 230.972 64.606H237.358V70H228.926Z" fill="#3B2E48"/>
<path d="M198.072 70.868C194.187 70.868 190.963 70 188.4 68.264C185.837 66.528 184.267 63.9033 183.688 60.39L189.64 58.964C189.971 60.6587 190.529 62.002 191.314 62.994C192.099 63.986 193.071 64.6887 194.228 65.102C195.427 65.5153 196.708 65.722 198.072 65.722C200.097 65.722 201.647 65.3293 202.722 64.544C203.838 63.7587 204.396 62.746 204.396 61.506C204.396 60.266 203.879 59.3567 202.846 58.778C201.813 58.1993 200.283 57.724 198.258 57.352L196.15 56.98C194.083 56.608 192.203 56.0707 190.508 55.368C188.813 54.6653 187.47 53.694 186.478 52.454C185.486 51.214 184.99 49.6227 184.99 47.68C184.99 44.7867 186.065 42.5547 188.214 40.984C190.363 39.372 193.215 38.566 196.77 38.566C200.201 38.566 203.011 39.3513 205.202 40.922C207.434 42.4513 208.881 44.5387 209.542 47.184L203.59 48.858C203.218 46.998 202.433 45.696 201.234 44.952C200.035 44.1667 198.547 43.774 196.77 43.774C195.034 43.774 193.67 44.1047 192.678 44.766C191.686 45.386 191.19 46.2747 191.19 47.432C191.19 48.672 191.665 49.5813 192.616 50.16C193.608 50.7387 194.931 51.1727 196.584 51.462L198.754 51.834C200.945 52.206 202.949 52.7227 204.768 53.384C206.587 54.0453 208.013 54.996 209.046 56.236C210.121 57.476 210.658 59.1293 210.658 61.196C210.658 64.2547 209.521 66.6313 207.248 68.326C204.975 70.0207 201.916 70.868 198.072 70.868Z" fill="#3B2E48"/>
<path d="M161.725 70.868C158.667 70.868 155.939 70.248 153.541 69.008C151.185 67.7267 149.325 65.908 147.961 63.552C146.597 61.196 145.915 58.406 145.915 55.182V54.252C145.915 51.028 146.597 48.2587 147.961 45.944C149.325 43.588 151.185 41.7693 153.541 40.488C155.939 39.2067 158.667 38.566 161.725 38.566C164.784 38.566 167.512 39.2067 169.909 40.488C172.307 41.7693 174.187 43.588 175.551 45.944C176.915 48.2587 177.597 51.028 177.597 54.252V55.182C177.597 58.406 176.915 61.196 175.551 63.552C174.187 65.908 172.307 67.7267 169.909 69.008C167.512 70.248 164.784 70.868 161.725 70.868ZM161.725 65.164C164.536 65.164 166.809 64.2753 168.545 62.498C170.323 60.6793 171.211 58.1787 171.211 54.996V54.438C171.211 51.2553 170.343 48.7753 168.607 46.998C166.871 45.1793 164.577 44.27 161.725 44.27C158.956 44.27 156.683 45.1793 154.905 46.998C153.169 48.7753 152.301 51.2553 152.301 54.438V54.996C152.301 58.1787 153.169 60.6793 154.905 62.498C156.683 64.2753 158.956 65.164 161.725 65.164Z" fill="#3B2E48"/>
<path d="M124.91 70.868C121.975 70.868 119.309 70.248 116.912 69.008C114.556 67.768 112.675 65.97 111.27 63.614C109.906 61.258 109.224 58.4267 109.224 55.12V54.314C109.224 51.0073 109.906 48.1967 111.27 45.882C112.675 43.526 114.556 41.728 116.912 40.488C119.309 39.2067 121.975 38.566 124.91 38.566C127.845 38.566 130.345 39.1033 132.412 40.178C134.479 41.2527 136.132 42.6787 137.372 44.456C138.653 46.2333 139.48 48.1967 139.852 50.346L133.652 51.648C133.445 50.284 133.011 49.044 132.35 47.928C131.689 46.812 130.759 45.9233 129.56 45.262C128.361 44.6007 126.853 44.27 125.034 44.27C123.257 44.27 121.645 44.6833 120.198 45.51C118.793 46.2953 117.677 47.4527 116.85 48.982C116.023 50.47 115.61 52.2887 115.61 54.438V54.996C115.61 57.1453 116.023 58.9847 116.85 60.514C117.677 62.0433 118.793 63.2007 120.198 63.986C121.645 64.7713 123.257 65.164 125.034 65.164C127.721 65.164 129.767 64.482 131.172 63.118C132.577 61.7127 133.466 59.9353 133.838 57.786L140.038 59.212C139.542 61.32 138.653 63.2627 137.372 65.04C136.132 66.8173 134.479 68.2433 132.412 69.318C130.345 70.3513 127.845 70.868 124.91 70.868Z" fill="#3B2E48"/>
</svg>
